<svg width="707" height="547" viewBox="0 0 707 547" fill="none" xmlns="http://www.w3.org/2000/svg">
<g clip-path="url(#clip0_1_40)">
<path d="M601.209 157.534C601.207 144.32 598.138 131.366 592.345 120.109C586.552 108.852 578.26 99.734 568.391 93.7662C558.521 87.7983 547.46 85.2148 536.436 86.3022C525.412 87.3897 514.855 92.1058 505.939 99.9267C497.023 107.748 490.096 118.367 485.927 130.607C481.758 142.846 480.51 156.226 482.322 169.262C484.135 182.297 488.936 194.477 496.193 204.45C503.449 214.423 512.878 221.798 523.432 225.757L525.432 363.342L616.909 255.49C616.909 255.49 581.242 238.993 574.409 217.133C582.652 210.62 589.415 201.766 594.092 191.365C598.769 180.964 601.214 169.341 601.209 157.534Z" fill="#ED9DA0"/>
<path d="M574.137 217.176C574.137 217.176 594.554 208.489 605.026 183.118C614.636 159.814 615.697 120.115 588.395 110.473C588.395 110.473 604.127 94.2513 575.125 84.3693L578.982 88.6209C578.982 88.6209 575.579 81.277 558.769 85.6193C558.769 85.6193 496.657 76.9779 485.633 101.407C485.633 101.407 452.297 109.568 470.05 139.861C470.05 139.861 470.967 145.755 477.302 145.644L474.137 140.7L483.782 145.644C483.782 145.644 497.197 120.12 509.855 134.233C509.855 134.233 534.072 133.016 545.65 130.482C545.65 130.482 543.325 167.639 565.554 174.875C587.782 182.111 574.133 217.178 574.133 217.178L574.137 217.176Z" fill="#090814"/>
<path d="M368.788 457.286L478.178 535.234L487.275 484.592L383.627 425.767C381.664 416.867 376.236 408.356 368.185 402.947C354.097 393.484 337.363 397.101 330.807 411.028C324.251 424.954 330.355 443.915 344.443 453.378C352.498 458.79 361.402 459.906 368.788 457.286Z" fill="#ED9DA0"/>
<path d="M596.688 237.358C571.476 267.619 547.534 275.742 525.506 250.512L494.395 522.842L507.331 545.232L586.002 545.5L596.69 237.358H596.688Z" fill="#6C63FF"/>
<path d="M600.829 234.619L613.985 247.524L653.923 274.73C662.444 278.507 670.126 284.565 676.381 292.441C682.636 300.317 687.297 309.8 690.007 320.162C696.387 344.634 700.913 369.742 703.529 395.183C710.097 459.512 705.324 544.335 705.324 544.335L644.605 544.968L647.245 502.431L657.013 397.193L656.754 545.235H586.001C586.001 545.235 581.159 294.144 591.711 238.305C591.929 237.183 592.384 236.147 593.032 235.294C593.679 234.441 594.499 233.799 595.412 233.43C596.325 233.062 597.302 232.978 598.25 233.186C599.199 233.395 600.087 233.889 600.83 234.622L600.829 234.619Z" fill="#090814"/>
<path d="M525.506 250.512L477.663 277.992C469.568 282.642 462.482 289.461 456.955 297.918C451.428 306.376 447.61 316.243 445.799 326.752L425.754 443.058L419.202 513.412C419.202 513.412 447.386 543.564 465.881 533.566L464.561 545.233H507.329L525.506 250.512Z" fill="#090814"/>
<path d="M455.322 462.61L399.09 425.398L382.985 478.692C382.985 478.692 415.309 526.533 465.88 533.564L455.32 462.608L455.322 462.61Z" fill="#090814"/>
<path d="M459.815 544.424C471.128 521.537 474.99 503.249 480.544 477.519C486.079 451.887 488.642 425.468 488.16 399.004C487.889 384.123 486.622 369.293 484.372 354.654C484.103 352.902 486.348 352.151 486.621 353.915C488.653 367.098 489.902 380.436 490.357 393.83C490.805 407.233 490.47 420.656 489.353 434.002C488.25 447.279 486.392 460.45 483.793 473.426C481.181 486.471 477.812 499.284 473.71 511.77C469.609 524.237 470.232 529.871 464.695 541.521C464.009 542.965 463.312 544.401 462.604 545.83C462.443 546.135 462.188 546.353 461.895 546.438C461.601 546.524 461.291 546.47 461.03 546.288C460.769 546.105 460.577 545.809 460.495 545.462C460.414 545.114 460.448 544.742 460.591 544.424H459.815Z" fill="white"/>
<path d="M415.255 429.263C418.241 435.455 422.304 440.81 427.17 444.965C432.036 449.121 437.592 451.982 443.462 453.354C444.934 453.692 444.311 456.377 442.844 456.039C436.681 454.575 430.851 451.554 425.746 447.179C420.641 442.803 416.378 437.174 413.242 430.669C413.099 430.351 413.065 429.979 413.147 429.632C413.229 429.284 413.42 428.988 413.681 428.806C413.942 428.624 414.252 428.57 414.546 428.655C414.84 428.741 415.094 428.959 415.256 429.264L415.255 429.263Z" fill="white"/>
<path d="M644.323 543.059C645.499 528.708 644.662 514.105 643.556 499.78C642.372 483.272 640.245 466.879 637.192 450.716C635.886 443.481 634.09 436.384 631.822 429.495C631.312 428.017 633.564 427.384 634.071 428.847C636.09 434.941 637.72 441.209 638.948 447.598C640.532 455.351 641.783 463.179 642.845 471.028C645.118 487.495 646.514 504.117 647.025 520.794C647.309 528.219 647.187 535.658 646.658 543.063C646.531 544.615 644.199 544.629 644.327 543.063L644.323 543.059Z" fill="white"/>
<path d="M567.099 524.646L653.732 536.47L645.416 496.735L568.594 488.526C563.51 481.609 555.472 476.889 546.246 476.344C530.104 475.394 516.483 487.554 515.822 503.512C515.161 519.47 527.712 533.179 543.855 534.13C553.08 534.674 561.469 530.923 567.099 524.64V524.646Z" fill="#ED9DA0"/>
<path d="M648.572 481.688L588.013 478.554L593.211 531.999C593.211 531.999 637.346 556.282 682.491 536.633L648.572 481.688Z" fill="#090814"/>
<path d="M525.189 251.862L494.384 521.497L491.7 516.852L522.811 244.521C542.937 267.574 564.662 262.786 587.491 238.704C588.018 238.147 588.668 237.783 589.364 237.654C590.059 237.525 590.771 237.636 591.414 237.975C592.058 238.314 592.607 238.866 592.997 239.567C593.386 240.267 593.599 241.086 593.611 241.926C569.411 269.508 546.414 276.17 525.186 251.861L525.189 251.862Z" fill="#090814"/>
<path d="M262.344 396.638C262.201 396.638 262.059 396.604 261.927 396.538C261.795 396.473 261.674 396.377 261.573 396.256C261.472 396.135 261.392 395.991 261.337 395.833C261.282 395.675 261.254 395.506 261.254 395.335V341.913C261.254 341.742 261.282 341.572 261.337 341.414C261.392 341.256 261.472 341.113 261.573 340.992C261.674 340.871 261.795 340.775 261.927 340.709C262.059 340.644 262.201 340.61 262.344 340.61C262.488 340.61 262.629 340.644 262.762 340.709C262.894 340.775 263.014 340.871 263.116 340.992C263.217 341.113 263.297 341.256 263.352 341.414C263.407 341.572 263.435 341.742 263.435 341.913V395.335C263.435 395.506 263.407 395.675 263.352 395.833C263.297 395.991 263.217 396.135 263.116 396.256C263.014 396.377 262.894 396.473 262.762 396.538C262.629 396.604 262.488 396.638 262.344 396.638Z" fill="#3F3D56"/>
<path d="M260.848 321.056C260.656 321.056 260.467 320.996 260.3 320.88L198.325 277.744C198.201 277.658 198.093 277.544 198.006 277.407C197.919 277.271 197.856 277.116 197.819 276.95C197.783 276.785 197.774 276.612 197.793 276.443C197.813 276.273 197.86 276.11 197.932 275.962C198.004 275.814 198.1 275.685 198.214 275.581C198.328 275.477 198.458 275.402 198.596 275.358C198.735 275.314 198.879 275.304 199.021 275.327C199.163 275.35 199.3 275.406 199.424 275.492L261.4 318.628C261.607 318.772 261.768 318.994 261.859 319.259C261.95 319.524 261.966 319.817 261.903 320.094C261.84 320.37 261.703 320.614 261.513 320.788C261.322 320.962 261.088 321.056 260.848 321.056Z" fill="#3F3D56"/>
<path d="M136.9 321.056C136.66 321.056 136.427 320.962 136.236 320.788C136.046 320.614 135.909 320.37 135.846 320.094C135.783 319.817 135.799 319.524 135.89 319.259C135.981 318.994 136.142 318.772 136.349 318.628L198.324 275.492C198.574 275.318 198.872 275.27 199.152 275.358C199.431 275.446 199.67 275.663 199.816 275.962C199.962 276.261 200.002 276.616 199.928 276.95C199.855 277.285 199.673 277.57 199.423 277.744L137.45 320.88C137.283 320.996 137.093 321.057 136.9 321.056Z" fill="#3F3D56"/>
<path d="M325.207 386.208C325.014 386.208 324.825 386.147 324.659 386.031L262.683 342.896C262.433 342.722 262.251 342.436 262.177 342.102C262.104 341.768 262.144 341.412 262.29 341.114C262.435 340.815 262.674 340.598 262.954 340.51C263.234 340.421 263.532 340.47 263.782 340.644L325.757 383.779C325.965 383.924 326.126 384.145 326.217 384.41C326.308 384.675 326.323 384.969 326.261 385.245C326.198 385.521 326.061 385.765 325.871 385.939C325.68 386.114 325.447 386.208 325.207 386.208Z" fill="#3F3D56"/>
<path d="M201.258 386.208C201.018 386.208 200.785 386.114 200.594 385.94C200.404 385.766 200.266 385.522 200.204 385.245C200.141 384.969 200.156 384.676 200.247 384.411C200.338 384.146 200.5 383.924 200.707 383.779L262.682 340.644C262.932 340.47 263.23 340.421 263.509 340.51C263.648 340.553 263.778 340.629 263.892 340.733C264.006 340.836 264.102 340.966 264.174 341.114C264.246 341.261 264.293 341.425 264.312 341.594C264.332 341.764 264.323 341.937 264.286 342.102C264.25 342.267 264.186 342.423 264.1 342.559C264.013 342.695 263.904 342.81 263.781 342.896L201.807 386.031C201.641 386.147 201.452 386.208 201.259 386.209L201.258 386.208Z" fill="#3F3D56"/>
<path d="M199.077 254.602C198.789 254.602 198.512 254.465 198.307 254.221C198.103 253.978 197.987 253.647 197.987 253.302L197.886 205.888C197.886 205.717 197.913 205.548 197.968 205.39C198.022 205.231 198.102 205.088 198.203 204.966C198.305 204.845 198.425 204.749 198.557 204.683C198.689 204.617 198.831 204.583 198.974 204.582C199.263 204.582 199.54 204.719 199.744 204.963C199.949 205.207 200.064 205.537 200.065 205.882L200.165 253.296C200.166 253.467 200.138 253.636 200.083 253.794C200.029 253.953 199.949 254.097 199.848 254.218C199.747 254.339 199.627 254.435 199.494 254.501C199.362 254.567 199.221 254.601 199.077 254.602Z" fill="#3F3D56"/>
<path d="M213.183 279.25H184.765C183.463 279.248 182.215 278.63 181.295 277.53C180.375 276.431 179.857 274.941 179.856 273.386V255.949C179.857 254.394 180.375 252.904 181.295 251.804C182.215 250.705 183.463 250.087 184.765 250.085H213.183C214.485 250.087 215.732 250.705 216.653 251.804C217.573 252.904 218.091 254.394 218.092 255.949V273.385C218.091 274.94 217.573 276.431 216.653 277.53C215.733 278.63 214.485 279.248 213.183 279.25Z" fill="#E6E6E6"/>
<path d="M166.148 190.617H105.679C105.39 190.617 105.113 190.479 104.908 190.235C104.704 189.991 104.589 189.659 104.589 189.314C104.589 188.968 104.704 188.637 104.908 188.393C105.113 188.148 105.39 188.011 105.679 188.011H166.148C166.437 188.011 166.714 188.148 166.919 188.393C167.123 188.637 167.238 188.968 167.238 189.314C167.238 189.659 167.123 189.991 166.919 190.235C166.714 190.479 166.437 190.617 166.148 190.617H166.148Z" fill="#3F3D56"/>
<path d="M198.975 172.006C198.686 172.006 198.408 171.868 198.204 171.624C197.999 171.38 197.884 171.048 197.884 170.703V125.6C197.884 125.255 197.999 124.923 198.204 124.679C198.408 124.435 198.686 124.297 198.975 124.297C199.264 124.297 199.541 124.435 199.746 124.679C199.951 124.923 200.065 125.255 200.065 125.6V170.702C200.065 171.047 199.951 171.379 199.746 171.623C199.541 171.867 199.264 172.006 198.975 172.006Z" fill="#3F3D56"/>
<path d="M82.1537 190.617C81.9584 190.617 81.7667 190.554 81.5987 190.435L22.8956 148.874C22.7723 148.786 22.6647 148.671 22.5788 148.534C22.4928 148.397 22.4304 148.241 22.3949 148.075C22.3594 147.91 22.3515 147.737 22.3719 147.568C22.3922 147.398 22.4403 147.235 22.5133 147.088C22.5864 146.941 22.683 146.812 22.7977 146.709C22.9124 146.607 23.0428 146.532 23.1817 146.49C23.3205 146.447 23.465 146.438 23.6068 146.462C23.7486 146.487 23.8851 146.544 24.0083 146.631L82.7114 188.193C82.919 188.337 83.0809 188.56 83.1717 188.826C83.2626 189.091 83.2775 189.385 83.214 189.662C83.1505 189.939 83.0122 190.183 82.8206 190.357C82.6291 190.53 82.3949 190.623 82.1546 190.621L82.1537 190.617Z" fill="#3F3D56"/>
<path d="M23.4524 232.178C23.212 232.18 22.9777 232.088 22.786 231.914C22.5943 231.741 22.4559 231.497 22.3923 231.22C22.3286 230.943 22.3434 230.649 22.4343 230.383C22.5252 230.117 22.687 229.895 22.8947 229.75L81.5978 188.188C81.721 188.101 81.8575 188.044 81.9993 188.019C82.1412 187.995 82.2856 188.005 82.4245 188.047C82.5633 188.089 82.6937 188.164 82.8084 188.267C82.9231 188.369 83.0197 188.498 83.0928 188.645C83.1658 188.792 83.2139 188.955 83.2342 189.125C83.2546 189.294 83.2468 189.467 83.2113 189.633C83.1758 189.798 83.1133 189.954 83.0274 190.091C82.9414 190.228 82.8338 190.344 82.7105 190.431L24.0074 231.992C23.8398 232.113 23.648 232.177 23.4524 232.178Z" fill="#3F3D56"/>
<path d="M101.318 211.635H86.724C85.4225 211.633 84.1748 211.015 83.2545 209.916C82.3342 208.816 81.8166 207.326 81.8152 205.771V171.825C81.8168 170.271 82.3345 168.78 83.2548 167.681C84.175 166.582 85.4227 165.964 86.724 165.962H101.32C102.622 165.964 103.87 166.582 104.79 167.682C105.71 168.781 106.228 170.272 106.229 171.826V205.772C106.228 207.327 105.709 208.818 104.789 209.917C103.868 211.016 102.62 211.634 101.318 211.635Z" fill="#E6E6E6"/>
<path d="M213.183 129.107H184.765C183.463 129.105 182.214 128.486 181.294 127.386C180.373 126.286 179.856 124.794 179.856 123.239V105.806C179.857 104.251 180.375 102.761 181.295 101.661C182.215 100.562 183.463 99.9436 184.765 99.9419H213.183C214.485 99.9436 215.732 100.562 216.653 101.661C217.573 102.761 218.091 104.251 218.092 105.806V123.239C218.091 124.793 217.573 126.284 216.653 127.383C215.732 128.482 214.485 129.101 213.183 129.102V129.107Z" fill="#E6E6E6"/>
<path d="M19.5051 171.24H4.91134C3.60988 171.239 2.36213 170.62 1.44186 169.521C0.521589 168.422 0.00396717 166.931 0.00256348 165.376V131.43C0.00420106 129.876 0.521911 128.386 1.44216 127.287C2.36241 126.187 3.61003 125.569 4.91134 125.568H19.5087C20.8101 125.569 22.0579 126.188 22.9782 127.287C23.8984 128.386 24.4161 129.877 24.4175 131.431V165.378C24.4158 166.933 23.8976 168.424 22.9766 169.523C22.0556 170.622 20.807 171.24 19.5051 171.24Z" fill="#E6E6E6"/>
<path d="M19.5051 253.333H4.91134C3.60988 253.331 2.36213 252.713 1.44186 251.613C0.521589 250.514 0.00396717 249.024 0.00256348 247.469V213.523C0.00420106 211.968 0.521911 210.478 1.44216 209.379C2.36241 208.28 3.61003 207.662 4.91134 207.66H19.5087C20.8101 207.662 22.0579 208.28 22.9782 209.379C23.8984 210.479 24.4161 211.969 24.4175 213.524V247.47C24.4158 249.025 23.8976 250.516 22.9766 251.615C22.0556 252.714 20.807 253.332 19.5051 253.333Z" fill="#E6E6E6"/>
<path d="M292.268 190.617H231.8C231.511 190.617 231.234 190.479 231.029 190.235C230.824 189.991 230.71 189.659 230.71 189.314C230.71 188.968 230.824 188.637 231.029 188.393C231.234 188.148 231.511 188.011 231.8 188.011H292.268C292.558 188.011 292.835 188.148 293.039 188.393C293.244 188.637 293.359 188.968 293.359 189.314C293.359 189.659 293.244 189.991 293.039 190.235C292.835 190.479 292.558 190.617 292.268 190.617Z" fill="#3F3D56"/>
<path d="M200.003 98.637C200.004 98.9241 199.927 99.2038 199.781 99.4326C199.636 99.6614 199.432 99.8266 199.2 99.9024C198.968 99.9783 198.722 99.9606 198.5 99.852C198.277 99.7434 198.091 99.5501 197.97 99.3021L163.181 29.18C163.033 28.8822 162.991 28.5266 163.063 28.1915C163.135 27.8564 163.315 27.5692 163.565 27.3931C163.814 27.217 164.112 27.1664 164.392 27.2524C164.673 27.3384 164.913 27.554 165.06 27.8518L199.851 97.974C199.95 98.1746 200.003 98.4037 200.003 98.637Z" fill="#3F3D56"/>
<path d="M234.796 28.517C234.797 28.7503 234.744 28.9793 234.644 29.18L199.854 99.3032C199.707 99.601 199.466 99.8166 199.186 99.9026C198.905 99.9887 198.608 99.938 198.358 99.7619C198.109 99.5858 197.928 99.2986 197.856 98.9635C197.784 98.6284 197.827 98.2728 197.974 97.975L232.767 27.8518C232.888 27.6038 233.074 27.4105 233.297 27.302C233.519 27.1934 233.766 27.1757 233.997 27.2515C234.229 27.3274 234.434 27.4925 234.579 27.7214C234.724 27.9502 234.802 28.2299 234.8 28.517H234.796Z" fill="#3F3D56"/>
<path d="M183.782 6.36479V23.8008C183.78 25.3555 183.263 26.846 182.342 27.9453C181.422 29.0446 180.174 29.6629 178.873 29.6646L150.455 29.6646C149.154 29.6629 147.906 29.0446 146.986 27.9453C146.065 26.846 145.548 25.3555 145.546 23.8008V6.36479C145.548 4.81014 146.065 3.31965 146.986 2.22035C147.906 1.12104 149.154 0.50272 150.455 0.501043L178.873 0.501043C180.174 0.50272 181.422 1.12104 182.342 2.22035C183.263 3.31965 183.78 4.81014 183.782 6.36479Z" fill="#E6E6E6"/>
<path d="M252.504 6.36372V23.7998C252.503 25.3544 251.985 26.8449 251.065 27.9442C250.144 29.0435 248.897 29.6618 247.595 29.6635L219.177 29.6635C217.876 29.6618 216.628 29.0435 215.708 27.9442C214.788 26.8449 214.27 25.3544 214.269 23.7998V6.36372C214.27 4.80907 214.788 3.31858 215.708 2.21928C216.628 1.11998 217.876 0.501652 219.177 0.499975L247.595 0.499975C248.897 0.501652 250.144 1.11998 251.065 2.21928C251.985 3.31858 252.503 4.80907 252.504 6.36372Z" fill="#E6E6E6"/>
<path d="M149.917 345.705H121.498C120.197 345.703 118.949 345.085 118.029 343.986C117.109 342.887 116.591 341.396 116.589 339.841V322.404C116.591 320.85 117.109 319.359 118.029 318.26C118.949 317.161 120.197 316.542 121.498 316.541H149.917C151.218 316.542 152.466 317.161 153.386 318.26C154.307 319.359 154.824 320.85 154.826 322.404V339.84C154.824 341.395 154.307 342.886 153.386 343.985C152.466 345.084 151.218 345.703 149.917 345.705Z" fill="#E6E6E6"/>
<path d="M276.251 345.705H247.832C246.531 345.703 245.283 345.085 244.363 343.986C243.442 342.887 242.925 341.396 242.923 339.841V322.404C242.925 320.85 243.442 319.359 244.363 318.26C245.283 317.161 246.531 316.542 247.832 316.541H276.25C277.551 316.542 278.799 317.161 279.719 318.26C280.64 319.359 281.157 320.85 281.159 322.404V339.84C281.157 341.395 280.64 342.886 279.72 343.985C278.8 345.085 277.552 345.703 276.251 345.705Z" fill="#E6E6E6"/>
<path d="M218.436 409.554H190.017C188.716 409.552 187.468 408.934 186.548 407.835C185.627 406.735 185.11 405.245 185.108 403.69V386.253C185.11 384.698 185.627 383.208 186.548 382.109C187.468 381.009 188.716 380.391 190.017 380.389H218.436C219.737 380.391 220.985 381.009 221.905 382.109C222.826 383.208 223.343 384.698 223.345 386.253V403.689C223.343 405.244 222.826 406.735 221.906 407.834C220.985 408.934 219.737 409.552 218.436 409.554Z" fill="#E6E6E6"/>
<path d="M339.517 409.554H311.098C309.797 409.552 308.549 408.934 307.629 407.835C306.708 406.735 306.191 405.245 306.189 403.69V386.253C306.191 384.698 306.708 383.208 307.629 382.109C308.549 381.009 309.797 380.391 311.098 380.389H339.517C340.818 380.391 342.066 381.009 342.986 382.109C343.907 383.208 344.424 384.698 344.426 386.253V403.689C344.424 405.244 343.907 406.734 342.986 407.834C342.066 408.933 340.818 409.551 339.517 409.553V409.554Z" fill="#6C63FF"/>
<path d="M276.251 409.554H247.832C246.531 409.552 245.283 408.934 244.363 407.835C243.442 406.735 242.925 405.245 242.923 403.69V386.253C242.925 384.698 243.442 383.208 244.363 382.109C245.283 381.009 246.531 380.391 247.832 380.389H276.25C277.551 380.391 278.799 381.009 279.719 382.109C280.64 383.208 281.157 384.698 281.159 386.253V403.689C281.157 405.244 280.64 406.734 279.72 407.834C278.8 408.933 277.552 409.552 276.251 409.554Z" fill="#E6E6E6"/>
<path d="M233.519 211.981H164.429C163.127 211.98 161.879 211.361 160.959 210.262C160.039 209.163 159.521 207.672 159.52 206.118V172.51C159.521 170.956 160.039 169.465 160.959 168.366C161.879 167.267 163.127 166.648 164.429 166.647H233.52C234.822 166.648 236.069 167.267 236.99 168.366C237.91 169.465 238.428 170.956 238.429 172.51V206.119C238.428 207.673 237.91 209.164 236.99 210.263C236.069 211.362 234.822 211.981 233.52 211.982L233.519 211.981Z" fill="#6C63FF"/>
<path d="M367.358 211.981H298.268C296.966 211.98 295.719 211.361 294.798 210.262C293.878 209.163 293.36 207.672 293.359 206.118V172.51C293.36 170.956 293.878 169.465 294.798 168.366C295.719 167.267 296.966 166.648 298.268 166.647H367.359C368.661 166.648 369.909 167.267 370.829 168.366C371.749 169.465 372.267 170.956 372.268 172.51V206.119C372.267 207.673 371.749 209.164 370.829 210.263C369.909 211.362 368.661 211.981 367.359 211.982L367.358 211.981Z" fill="#E6E6E6"/>
</g>
<defs>
<clipPath id="clip0_1_40">
<rect width="707" height="546" fill="white" transform="translate(0 0.5)"/>
</clipPath>
</defs>
</svg>
