<svg width="59" height="61" viewBox="0 0 59 61" fill="none" xmlns="http://www.w3.org/2000/svg">
<path d="M37.5755 0.62207C39.2443 4.826 39.2442 4.82612 36.8823 8.68359C41.0863 7.01479 41.0865 7.01467 44.9438 9.37638C43.275 5.17245 43.2749 5.17258 45.6366 1.31511C41.4327 2.98403 41.433 2.98391 37.5755 0.62207ZM11.3488 2.82687C9.84969 5.49796 9.84969 5.49796 6.81348 5.90129C9.48457 7.40048 9.48457 7.40035 9.8879 10.4367C11.387 7.7656 11.387 7.7656 14.4232 7.36227C11.7521 5.8632 11.7521 5.8632 11.3488 2.82687ZM21.067 9.9596C20.9462 16.3819 20.9464 16.3819 15.7361 20.1387C22.1583 20.2593 22.1584 20.2593 25.9152 25.4695C26.0358 19.0472 26.0358 19.0472 31.246 15.2904C24.8237 15.1698 24.8237 15.1698 21.0669 9.9596H21.067ZM45.3375 17.0544C45.3317 20.1174 45.3314 20.1171 42.8776 21.9502C45.9406 21.9562 45.9406 21.956 47.7736 24.4099C47.7796 21.347 47.7795 21.3472 50.2333 19.5141C47.1705 19.5081 47.1706 19.5083 45.3375 17.0544ZM21.9672 27.7032C21.8194 27.7062 21.6716 27.7119 21.5239 27.7202C19.1637 27.8553 16.2086 28.7887 11.692 30.5838L6.64996 53.0446C16.6141 50.4123 23.5309 50.2632 28.3577 52.4587V29.4475C26.0629 28.3287 24.3218 27.7465 22.4281 27.7036C22.2745 27.7004 22.1209 27.7003 21.9674 27.7033L21.9672 27.7032ZM37.5426 29.153C37.1823 29.1498 36.8219 29.154 36.4617 29.1655C34.8355 29.2184 32.953 29.4466 30.6422 29.7395V52.2274C36.1729 51.234 44.2071 51.6942 52.3822 53.1879L47.332 30.6922C42.7738 29.6296 40.1478 29.1802 37.5426 29.1531V29.153ZM37.8332 31.3049C40.2312 31.3308 42.5117 31.6563 44.6515 31.9422L45.2148 34.0398C42.1958 33.5637 36.8402 33.417 33.4758 33.9154L33.3951 31.655C34.9133 31.3815 36.3943 31.2894 37.8332 31.3049ZM6.0336 31.8962L4.68574 37.7366H7.74455L9.05547 31.8962H6.0336ZM49.9443 31.8962L54.9896 54.3708L55.2739 55.637L58.1419 55.6177L52.9552 31.8962H49.9443ZM39.9331 39.2366C42.0905 39.2399 44.2076 39.3371 46.1724 39.5189L46.6198 41.6992C42.4754 41.3081 37.4055 41.3324 33.5442 41.6992L33.4542 39.5189C35.5785 39.3242 37.7757 39.2335 39.9331 39.2366ZM4.15863 40.0212L3.27961 43.8303H6.3765L7.23153 40.0212H4.15863ZM38.9969 43.4799C39.5879 43.4826 40.2013 43.4907 40.8651 43.5057L41.1895 45.7271C38.6542 45.6673 35.2081 45.7982 33.6068 45.8604L33.5179 43.5772C35.6511 43.5146 37.2236 43.4721 38.9969 43.4799ZM44.2624 43.5367C45.312 43.542 46.3821 43.5791 47.3246 43.5454L47.6521 45.7976C46.5536 45.758 44.4948 45.6922 43.5815 45.7338L43.2252 43.5459C43.5708 43.5374 43.9166 43.5343 44.2624 43.5367ZM2.7525 46.115L0.469248 56.0082L3.64752 55.9866L5.86349 46.115H2.7525ZM41.2401 47.6191C43.7294 47.6178 46.1481 47.7174 48.4065 47.9456L48.7868 50.5846C44.4317 50.0458 37.9 49.6074 33.6667 50.1728L33.649 47.8975C36.1906 47.7224 38.7507 47.6204 41.2401 47.6191ZM20.089 53.2114C16.2662 53.2228 11.4668 54.0048 5.43756 55.72L4.52096 55.9806L28.3575 55.8194V55.0136C26.2963 53.8449 23.607 53.201 20.0891 53.2114H20.089ZM37.1527 53.9952C34.6606 54.0037 32.4412 54.1779 30.6422 54.5261V55.8038L53.1883 55.651C47.5615 54.5549 41.8721 53.9791 37.1529 53.9952H37.1527ZM0.300781 58.3027V60.5879H58.6992V58.3027H0.300781Z" fill="#2D7C7F"/>
</svg>
