<svg width="60" height="58" viewBox="0 0 60 58" fill="none" xmlns="http://www.w3.org/2000/svg">
<path d="M17.2951 4.42591C10.5132 6.84996 4.86168 8.87907 4.71188 8.94716C4.52123 9.02887 5.97838 9.60084 10.2545 11.1125L16.0559 13.1824L17.3768 12.5015C20.0324 11.1533 23.4642 10.3362 27.5769 10.0502C32.9561 9.68254 38.9753 10.7175 42.448 12.5832L43.5647 13.196L49.366 11.1261C52.5527 9.99576 55.1401 9.04249 55.0993 9.01525C55.004 8.91992 29.9056 -0.0136251 29.7558 -7.62939e-06C29.6877 -7.62939e-06 24.077 2.00187 17.2951 4.42591Z" fill="#2D7C7F"/>
<path d="M26.2832 11.5755C23.3961 11.8751 20.5363 12.5968 18.4936 13.5637L17.1726 14.1766L17.0364 14.8302C16.3827 17.8943 16.4508 21.367 17.2134 23.1782L17.4177 23.6821H29.8239H42.2301L42.4344 23.1782C43.197 21.3534 43.2787 17.9079 42.6114 14.8302L42.4752 14.1766L41.1543 13.5637C39.0298 12.5696 36.2517 11.8751 33.1059 11.5619C31.4717 11.3984 27.9446 11.4121 26.2832 11.5755ZM26.6917 15.5111C27.2773 16.0967 26.9505 16.4916 25.4661 16.9547C23.9545 17.4313 22.7561 17.9624 21.7755 18.6433C20.6997 19.3787 20.0188 19.3515 20.0188 18.548C20.0188 17.8126 22.4837 16.3418 25.0575 15.5656C26.3377 15.1843 26.3649 15.1843 26.6917 15.5111ZM35.1214 15.7426C36.3607 16.1376 37.5318 16.7095 38.6485 17.4585C39.5201 18.0441 39.7924 18.4799 39.5337 18.9021C39.275 19.3106 38.7438 19.2289 37.8859 18.6433C36.8918 17.9624 35.707 17.4313 34.1817 16.9547C32.6974 16.4916 32.3705 16.0967 32.9697 15.4975C33.2829 15.1843 33.4736 15.1979 35.1214 15.7426Z" fill="#2D7C7F"/>
<path d="M7.08142 14.0813V16.6006H8.0347H8.98797V14.3809V12.1747L8.14364 11.8615C7.667 11.6981 7.24484 11.5619 7.19037 11.5619C7.12228 11.5619 7.08142 12.6922 7.08142 14.0813Z" fill="#2D7C7F"/>
<path d="M5.88301 19.0791C5.6515 19.6239 5.39276 20.3456 5.29743 20.6861C5.09316 21.4487 5.06592 23.3553 5.25658 23.5459C5.3519 23.6412 6.33241 23.6821 8.1164 23.6549L10.8264 23.614L10.949 22.974C11.1124 22.1296 10.8128 20.5771 10.2136 19.1472L9.77782 18.0986H8.03469H6.29156L5.88301 19.0791Z" fill="#2D7C7F"/>
<path d="M0 41.522V58H8.44329H16.8866V41.522V25.0439H8.44329H0V41.522ZM5.8286 29.2111C6.46865 29.4698 7.027 30.0009 7.36745 30.6546C7.58535 31.0904 7.6262 31.4581 7.6262 33.3238C7.6262 34.8082 7.57173 35.5299 7.46278 35.6389C7.23127 35.8704 2.30148 35.8704 2.06997 35.6389C1.81122 35.3801 1.85208 31.4445 2.12444 30.7908C2.72364 29.3337 4.4123 28.6119 5.8286 29.2111ZM13.6182 29.4562C13.9042 29.6469 14.3264 30.0963 14.5306 30.4503C14.8983 31.0768 14.9119 31.1993 14.9528 33.1195C14.9937 34.7946 14.9664 35.1895 14.7894 35.4619L14.5715 35.8023H12.0521C9.95492 35.8023 9.51913 35.7615 9.3421 35.5844C9.16506 35.4074 9.1242 35.0124 9.1242 33.46C9.1242 32.4114 9.1923 31.3083 9.274 31.0223C9.4919 30.3278 10.0911 29.6333 10.7856 29.2792C11.5891 28.8706 12.8556 28.9387 13.6182 29.4562ZM5.8286 38.3353C6.46865 38.594 7.027 39.1252 7.36745 39.7788C7.58535 40.2146 7.6262 40.5823 7.6262 42.448C7.6262 43.9324 7.57173 44.6541 7.46278 44.7631C7.23127 44.9946 2.30148 44.9946 2.06997 44.7631C1.81122 44.5043 1.85208 40.5687 2.12444 39.915C2.72364 38.4579 4.4123 37.7361 5.8286 38.3353ZM13.3867 38.4579C13.9859 38.7302 14.517 39.3839 14.7894 40.1193C14.8983 40.4461 14.9664 41.3041 14.98 42.4752C14.98 45.0899 15.1707 44.9265 12.0521 44.9265C9.95492 44.9265 9.51913 44.8857 9.3421 44.7086C9.16506 44.5316 9.1242 44.1367 9.1242 42.5842C9.1242 41.4675 9.1923 40.4325 9.28762 40.1057C9.4919 39.4248 10.4316 38.4579 11.058 38.2672C11.6844 38.0765 12.7739 38.1583 13.3867 38.4579ZM5.8286 47.4595C6.46865 47.7182 7.027 48.2494 7.36745 48.903C7.58535 49.3388 7.6262 49.7065 7.6262 51.5722C7.6262 53.0566 7.57173 53.7784 7.46278 53.8873C7.23127 54.1188 2.30148 54.1188 2.06997 53.8873C1.81122 53.6286 1.85208 49.6929 2.12444 49.0392C2.72364 47.5821 4.4123 46.8603 5.8286 47.4595ZM13.5229 47.691C13.9314 47.9361 14.2855 48.2902 14.5306 48.7124C14.8847 49.3252 14.9119 49.4614 14.9664 51.3679C15.0073 53.043 14.98 53.4243 14.7894 53.7103L14.5715 54.0507H12.0521C9.95492 54.0507 9.51913 54.0099 9.3421 53.8328C9.16506 53.6558 9.1242 53.2609 9.1242 51.7084C9.1242 50.5917 9.1923 49.5567 9.28762 49.2299C9.4919 48.549 10.3771 47.6365 11.0308 47.4186C11.7934 47.1599 12.8147 47.2825 13.5229 47.691Z" fill="#2D7C7F"/>
<path d="M4.41226 30.4504C4.24884 30.4776 3.94924 30.6955 3.73134 30.9134C3.35003 31.3083 3.33642 31.3764 3.29556 32.888L3.24109 34.4405H4.75271H6.26433V33.0651C6.26433 32.1118 6.19624 31.5534 6.06006 31.2402C5.77408 30.6546 5.07955 30.3278 4.41226 30.4504Z" fill="#2D7C7F"/>
<path d="M11.4938 30.5457C10.7448 30.8861 10.6222 31.1994 10.6222 32.9016V34.4405H12.0521H13.482V33.0242C13.482 32.2343 13.4275 31.4445 13.3458 31.2538C13.1007 30.5865 12.1883 30.2461 11.4938 30.5457Z" fill="#2D7C7F"/>
<path d="M4.48035 39.5882C4.27607 39.6154 3.94924 39.8197 3.73134 40.0376C3.35003 40.4325 3.33642 40.5006 3.29556 42.0122L3.24109 43.5647H4.76633H6.29157L6.2371 42.0122C6.19624 40.5142 6.18262 40.4325 5.81493 40.0512C5.40639 39.629 5.07955 39.5201 4.48035 39.5882Z" fill="#2D7C7F"/>
<path d="M11.6163 39.6427C10.7992 39.8605 10.6222 40.2691 10.6222 42.0122V43.5647H12.0521H13.482V42.0939C13.482 40.8819 13.4412 40.5687 13.2097 40.1874C13.0599 39.9559 12.9237 39.7516 12.9101 39.7516C12.8828 39.7516 12.6785 39.6971 12.4607 39.6427C12.2291 39.5746 11.8615 39.5746 11.6163 39.6427Z" fill="#2D7C7F"/>
<path d="M3.78582 49.1345L3.33642 49.5295L3.29556 51.1092L3.24109 52.6889H4.76633H6.29157L6.2371 51.1092L6.19624 49.5295L5.74684 49.1345C5.13402 48.5898 4.39864 48.5898 3.78582 49.1345Z" fill="#2D7C7F"/>
<path d="M11.0171 49.1345C10.6222 49.5295 10.6222 49.5567 10.6222 51.1092V52.6889H12.0521H13.482V51.259C13.482 49.2299 13.196 48.7396 11.984 48.7396C11.5346 48.7396 11.3303 48.8213 11.0171 49.1345Z" fill="#2D7C7F"/>
<path d="M18.2484 41.522V58H21.1082H23.9681V54.0643C23.9681 50.6325 23.9953 50.0197 24.2132 49.3252C24.7171 47.7182 25.7657 46.5335 27.359 45.7708C28.2306 45.3487 28.5438 45.267 29.5379 45.2261C32.2752 45.1035 34.5222 46.6424 35.4074 49.2707C35.6525 50.0197 35.6797 50.4283 35.6797 54.0507V58H38.5396H41.3994V41.522V25.0439H29.8239H18.2484V41.522ZM27.1547 28.0127C28.2714 28.6255 28.8979 29.715 28.8979 31.0359C28.8979 31.9756 28.5983 32.711 27.9446 33.4055C27.2501 34.1273 26.5283 34.4405 25.4933 34.4405C23.8046 34.4405 22.5926 33.5281 22.116 31.8939C21.6938 30.4503 22.3475 28.8843 23.6821 28.0808C24.077 27.8493 24.5673 27.6178 24.7715 27.5905C25.4524 27.468 26.4874 27.6586 27.1547 28.0127ZM35.8295 27.9718C37.8586 29.0068 38.2672 31.8394 36.6194 33.4736C35.9521 34.1545 35.2167 34.4405 34.1817 34.4405C33.1195 34.4405 32.4114 34.1409 31.7032 33.4055C30.5184 32.1526 30.4095 30.3278 31.4581 28.8434C31.7849 28.394 32.7518 27.7812 33.4055 27.6178C34.0592 27.4543 35.0941 27.6041 35.8295 27.9718ZM26.896 36.0611C29.034 36.9871 29.5924 39.9695 27.931 41.6309C26.2695 43.2923 23.5731 42.8974 22.4156 40.8547C22.0751 40.2282 22.007 39.9559 22.007 39.2069C22.007 36.6739 24.54 35.0533 26.896 36.0611ZM35.5299 36.0202C36.3062 36.347 36.8237 36.8101 37.2458 37.5863C38.0765 39.1252 37.6135 41.0453 36.1836 42.0258C34.2498 43.3332 31.7441 42.5433 30.9134 40.3644C30.6682 39.7244 30.7227 38.4987 31.0087 37.8314C31.7849 36.0747 33.7459 35.2848 35.5299 36.0202Z" fill="#2D7C7F"/>
<path d="M24.363 29.3065C23.0829 30.1508 23.1374 32.0165 24.4583 32.7655C25.1256 33.1468 25.7657 33.1604 26.4193 32.7927C27.4952 32.1935 27.8084 30.8045 27.1003 29.8103C26.5147 28.9796 25.2073 28.7345 24.363 29.3065Z" fill="#2D7C7F"/>
<path d="M33.2829 29.1839C32.7109 29.429 32.2479 30.1235 32.1662 30.8317C32.0845 31.5943 32.5202 32.3978 33.2284 32.7927C34.9579 33.7596 36.8781 31.8666 35.9793 30.0827C35.5026 29.1294 34.3315 28.7345 33.2829 29.1839Z" fill="#2D7C7F"/>
<path d="M24.5401 37.3956C23.9409 37.6816 23.5323 38.2944 23.4642 38.989C23.2191 41.1543 26.1198 42.0939 27.1956 40.2146C28.2034 38.4715 26.3377 36.4968 24.5401 37.3956Z" fill="#2D7C7F"/>
<path d="M33.2284 37.4093C32.2887 37.9268 31.9074 39.1388 32.3568 40.1057C33.2148 41.9169 35.9657 41.4267 36.1835 39.4248C36.3742 37.8178 34.6311 36.6467 33.2284 37.4093Z" fill="#2D7C7F"/>
<path d="M42.7612 41.522V58H51.2045H59.6478V41.522V25.0439H51.2045H42.7612V41.522ZM48.8486 29.2792C49.5431 29.6196 50.1559 30.3142 50.3738 31.0223C50.4555 31.3083 50.5236 32.3841 50.5236 33.4191C50.5236 34.9852 50.4828 35.3529 50.2921 35.5572C50.1014 35.7751 49.8155 35.8023 47.5821 35.8023H45.0763L44.8584 35.4619C44.6814 35.1895 44.6542 34.7946 44.695 33.1195C44.7359 31.213 44.7495 31.0768 45.1172 30.464C45.907 29.1158 47.4731 28.6119 48.8486 29.2792ZM55.9437 29.2111C56.611 29.4835 57.1693 30.0282 57.4825 30.6955C57.7004 31.1449 57.7413 31.5943 57.7413 33.3646C57.7413 34.8218 57.6868 35.5299 57.5778 35.6389C57.3463 35.8704 52.4165 35.8704 52.185 35.6389C52.0761 35.5299 52.0216 34.8082 52.0216 33.3238C52.0216 31.4581 52.0625 31.0904 52.2804 30.6546C53.0021 29.2656 54.5818 28.6391 55.9437 29.2111ZM48.5354 38.2672C49.2163 38.4579 50.1423 39.3839 50.3602 40.1057C50.4555 40.4325 50.5236 41.4675 50.5236 42.5842C50.5236 44.1367 50.4828 44.5316 50.3057 44.7086C50.1287 44.8857 49.6929 44.9265 47.5957 44.9265H45.0763L44.8584 44.5861C44.6814 44.3137 44.6542 43.9188 44.695 42.2437C44.7359 40.3372 44.7495 40.201 45.1172 39.5882C45.8389 38.3489 47.0918 37.8723 48.5354 38.2672ZM55.9437 38.3353C56.611 38.6077 57.1693 39.1524 57.4825 39.8197C57.7004 40.2691 57.7413 40.7185 57.7413 42.4889C57.7413 43.946 57.6868 44.6541 57.5778 44.7631C57.3463 44.9946 52.4165 44.9946 52.185 44.7631C52.0761 44.6541 52.0216 43.9324 52.0216 42.448C52.0216 40.5823 52.0625 40.2146 52.2804 39.7788C53.0021 38.3898 54.5818 37.7633 55.9437 38.3353ZM48.4945 47.3914C49.2571 47.6502 49.8563 48.1949 50.1968 48.9303C50.4964 49.5567 50.5236 49.8018 50.5236 51.6267C50.5236 53.2609 50.4828 53.6558 50.3057 53.8328C50.1287 54.0099 49.6929 54.0507 47.5957 54.0507H45.0763L44.8584 53.7103C44.6678 53.4243 44.6405 53.043 44.6814 51.3543C44.7359 49.3797 44.7495 49.3116 45.1444 48.6715C45.8526 47.5276 47.2689 46.9829 48.4945 47.3914ZM55.9437 47.4595C56.611 47.7319 57.1693 48.2766 57.4825 48.9439C57.7004 49.3933 57.7413 49.8427 57.7413 51.6131C57.7413 53.0702 57.6868 53.7784 57.5778 53.8873C57.3463 54.1188 52.4165 54.1188 52.185 53.8873C52.0761 53.7784 52.0216 53.0566 52.0216 51.5722C52.0216 49.7065 52.0625 49.3388 52.2804 48.903C53.0021 47.514 54.5818 46.8875 55.9437 47.4595Z" fill="#2D7C7F"/>
<path d="M47.0373 30.5457C46.2883 30.8725 46.1658 31.1994 46.1658 32.9016V34.4405H47.5957H49.0256V32.9016C49.0256 31.1857 48.903 30.8725 48.1268 30.5457C47.5821 30.3142 47.5684 30.3142 47.0373 30.5457Z" fill="#2D7C7F"/>
<path d="M54.6091 30.4504C53.6149 30.7636 53.3834 31.2402 53.3834 33.0651V34.4405H54.895H56.4067L56.3522 32.8744C56.3113 31.3492 56.2977 31.3083 55.9028 30.9134C55.4942 30.5184 54.9768 30.3278 54.6091 30.4504Z" fill="#2D7C7F"/>
<path d="M47.1463 39.6427C46.3837 39.8469 46.1658 40.3917 46.1658 42.0939V43.5647H47.5957H49.0256V42.0122C49.0256 40.5823 48.9984 40.4189 48.726 40.0921C48.3447 39.6563 47.7319 39.4929 47.1463 39.6427Z" fill="#2D7C7F"/>
<path d="M54.5954 39.5882C53.6286 39.8469 53.3834 40.378 53.3834 42.1893V43.5647H54.895H56.4067L56.3522 42.0122C56.3113 40.5142 56.2977 40.4325 55.93 40.0512C55.5623 39.6563 55.0176 39.4792 54.5954 39.5882Z" fill="#2D7C7F"/>
<path d="M46.8058 48.8894C46.3292 49.1754 46.1658 49.761 46.1658 51.259V52.6889H47.5957H49.0256V51.1092C49.0256 49.5567 49.0256 49.5295 48.6307 49.1345C48.3038 48.8213 48.1132 48.7396 47.6365 48.7396C47.3097 48.7396 46.942 48.8077 46.8058 48.8894Z" fill="#2D7C7F"/>
<path d="M53.9009 49.1345L53.4515 49.5295L53.4107 51.1092L53.3562 52.6889H54.8814H56.4067L56.3522 51.1092L56.3114 49.5295L55.862 49.1345C55.2491 48.5898 54.5137 48.5898 53.9009 49.1345Z" fill="#2D7C7F"/>
<path d="M27.9582 47.0237C27.0458 47.4595 26.2151 48.3038 25.7521 49.2707C25.398 50.0333 25.398 50.0333 25.3571 54.0099L25.3163 58H27.2228H29.143V52.3484C29.143 45.9343 29.2519 46.4245 27.9582 47.0237Z" fill="#2D7C7F"/>
<path d="M30.5048 52.3484V58H32.425H34.3315L34.2907 54.0099C34.2498 50.0333 34.2498 50.0333 33.8958 49.2707C33.4327 48.3038 32.602 47.4595 31.6896 47.0237C30.3959 46.4245 30.5048 45.9343 30.5048 52.3484Z" fill="#2D7C7F"/>
</svg>
