<svg width="65" height="65" viewBox="0 0 65 65" fill="none" xmlns="http://www.w3.org/2000/svg">
<path d="M57.5174 14.3229L33.1424 6.19788C32.7254 6.05888 32.2746 6.05888 31.8576 6.19788L7.48262 14.3229C7.07816 14.4577 6.72638 14.7164 6.47711 15.0623C6.22784 15.4081 6.09372 15.8237 6.09375 16.25V36.5625C6.09375 37.1012 6.30776 37.6179 6.68869 37.9988C7.06962 38.3798 7.58628 38.5938 8.125 38.5938C8.66372 38.5938 9.18038 38.3798 9.56131 37.9988C9.94224 37.6179 10.1562 37.1012 10.1562 36.5625V19.0684L18.685 21.9096C16.419 25.5704 15.6984 29.9809 16.6815 34.1725C17.6645 38.3642 20.2708 41.9944 23.9281 44.266C19.3578 46.0586 15.407 49.301 12.5176 53.7342C12.3673 53.9576 12.2629 54.2085 12.2105 54.4726C12.1581 54.7366 12.1587 55.0084 12.2122 55.2723C12.2658 55.5361 12.3713 55.7866 12.5225 56.0093C12.6737 56.232 12.8677 56.4224 13.0932 56.5695C13.3187 56.7165 13.5711 56.8173 13.8359 56.8659C14.1006 56.9146 14.3724 56.9101 14.6355 56.8528C14.8985 56.7954 15.1475 56.6864 15.368 56.532C15.5885 56.3776 15.7761 56.1809 15.9199 55.9533C19.7463 50.083 25.7893 46.7188 32.5 46.7188C39.2107 46.7188 45.2537 50.083 49.0801 55.9533C49.378 56.3961 49.8382 56.7039 50.3612 56.8101C50.8843 56.9163 51.4281 56.8123 51.8751 56.5208C52.3221 56.2292 52.6364 55.7735 52.75 55.252C52.8637 54.7306 52.7676 54.1853 52.4824 53.7342C49.593 49.301 45.627 46.0586 41.0719 44.266C44.7257 41.9945 47.3295 38.3666 48.3124 34.178C49.2953 29.9895 48.577 25.5821 46.315 21.9223L57.5174 18.1899C57.9219 18.0551 58.2738 17.7965 58.5232 17.4506C58.7725 17.1047 58.9067 16.6891 58.9067 16.2627C58.9067 15.8363 58.7725 15.4207 58.5232 15.0749C58.2738 14.729 57.9219 14.4703 57.5174 14.3356V14.3229ZM44.6875 30.4688C44.688 32.3956 44.2318 34.295 43.3561 36.0113C42.4804 37.7276 41.2102 39.2118 39.6498 40.3422C38.0894 41.4725 36.2833 42.2168 34.3796 42.5139C32.4758 42.8111 30.5288 42.6526 28.6981 42.0516C26.8675 41.4505 25.2055 40.424 23.8484 39.0562C22.4913 37.6884 21.4778 36.0184 20.8912 34.1831C20.3045 32.3478 20.1613 30.3995 20.4734 28.4982C20.7855 26.5969 21.544 24.7966 22.6865 23.2451L31.8576 26.292C32.2746 26.431 32.7254 26.431 33.1424 26.292L42.3135 23.2451C43.8565 25.3374 44.6885 27.8691 44.6875 30.4688Z" fill="#2D7C7F"/>
</svg>
