<svg width="3" height="17" viewBox="0 0 3 17" fill="none" xmlns="http://www.w3.org/2000/svg">
<path d="M0.132812 1.63965C0.132812 2.00225 0.276855 2.35 0.533252 2.6064C0.78965 2.86279 1.1374 3.00684 1.5 3.00684C1.8626 3.00684 2.21035 2.86279 2.46675 2.6064C2.72314 2.35 2.86719 2.00225 2.86719 1.63965C2.86719 1.27705 2.72314 0.929298 2.46675 0.672901C2.21035 0.416504 1.8626 0.272461 1.5 0.272461C1.1374 0.272461 0.78965 0.416504 0.533252 0.672901C0.276855 0.929298 0.132812 1.27705 0.132812 1.63965ZM0.132812 8.47559C0.132812 8.83819 0.276855 9.18594 0.533252 9.44233C0.78965 9.69873 1.1374 9.84277 1.5 9.84277C1.8626 9.84277 2.21035 9.69873 2.46675 9.44233C2.72314 9.18594 2.86719 8.83819 2.86719 8.47559C2.86719 8.11299 2.72314 7.76524 2.46675 7.50884C2.21035 7.25244 1.8626 7.1084 1.5 7.1084C1.1374 7.1084 0.78965 7.25244 0.533252 7.50884C0.276855 7.76524 0.132812 8.11299 0.132812 8.47559ZM0.132812 15.3115C0.132812 15.6741 0.276855 16.0219 0.533252 16.2783C0.78965 16.5347 1.1374 16.6787 1.5 16.6787C1.8626 16.6787 2.21035 16.5347 2.46675 16.2783C2.72314 16.0219 2.86719 15.6741 2.86719 15.3115C2.86719 14.9489 2.72314 14.6012 2.46675 14.3448C2.21035 14.0884 1.8626 13.9443 1.5 13.9443C1.1374 13.9443 0.78965 14.0884 0.533252 14.3448C0.276855 14.6012 0.132812 14.9489 0.132812 15.3115Z" fill="black"/>
</svg>
