<svg width="26" height="26" viewBox="0 0 26 26" fill="currentColor" xmlns="http://www.w3.org/2000/svg">
<g clip-path="url(#clip0_10_642)">
<path d="M22.438 -0.0629883C22.063 -0.0629883 21.706 0.107012 21.406 0.407012L20.688 1.09401L24.906 5.31201L25.594 4.59401C26.194 3.99401 26.194 3.10001 25.594 2.50001L23.5 0.406012C23.2 0.106012 22.813 -0.0629883 22.438 -0.0629883ZM20 1.68801L18.906 2.59501L23.406 7.09501L24.406 6.09501L20 1.68801ZM18.312 3.31301L9.282 12.251C9.23638 12.2889 9.19421 12.3307 9.156 12.376L9.094 12.407C8.98583 12.5326 8.91057 12.6831 8.875 12.845L7.656 17.126C7.60375 17.2955 7.5987 17.4759 7.64139 17.648C7.68409 17.8201 7.7729 17.9773 7.89828 18.1027C8.02367 18.2281 8.18087 18.3169 8.35297 18.3596C8.52507 18.4023 8.70555 18.3973 8.875 18.345L13.156 17.126C13.298 17.092 13.4306 17.0266 13.5441 16.9347C13.6576 16.8429 13.7491 16.7268 13.812 16.595L22.688 7.81301L21 6.00001V6.09401L19.812 4.90601H19.906L18.312 3.31301ZM0.812999 4.00001C0.581328 4.04407 0.372683 4.16859 0.22392 4.35157C0.0751559 4.53456 -0.00415419 4.76423 -1.20158e-06 5.00001V25C-1.20158e-06 25.2652 0.105356 25.5196 0.292892 25.7071C0.480428 25.8947 0.734782 26 0.999999 26H21C21.2652 26 21.5196 25.8947 21.7071 25.7071C21.8946 25.5196 22 25.2652 22 25V14C22 13.7348 21.8946 13.4804 21.7071 13.2929C21.5196 13.1054 21.2652 13 21 13C20.7348 13 20.4804 13.1054 20.2929 13.2929C20.1054 13.4804 20 13.7348 20 14V24H2V6.00001H12C12.2652 6.00001 12.5196 5.89465 12.7071 5.70712C12.8946 5.51958 13 5.26523 13 5.00001C13 4.7348 12.8946 4.48044 12.7071 4.29291C12.5196 4.10537 12.2652 4.00001 12 4.00001H0.999999C0.968683 3.99854 0.937315 3.99854 0.905999 4.00001C0.874683 3.99854 0.843315 3.99854 0.811999 4.00001H0.812999ZM10.626 13.813L12.001 13.906L12.095 15.406L10.72 15.812L10.189 15.282L10.626 13.813Z" fill="#B6B6B6"/>
</g>
<defs>
<clipPath id="clip0_10_642">
<rect width="26" height="26" fill="white"/>
</clipPath>
</defs>
</svg>
