<svg width="13" height="12" viewBox="0 0 13 12" fill="none" xmlns="http://www.w3.org/2000/svg">
<path d="M0.875 11.625V8.96875L9.125 0.734375C9.25 0.619792 9.38813 0.53125 9.53938 0.46875C9.69063 0.40625 9.84937 0.375 10.0156 0.375C10.1819 0.375 10.3433 0.40625 10.5 0.46875C10.6567 0.53125 10.7921 0.625 10.9062 0.75L11.7656 1.625C11.8906 1.73958 11.9819 1.875 12.0394 2.03125C12.0969 2.1875 12.1254 2.34375 12.125 2.5C12.125 2.66667 12.0965 2.82563 12.0394 2.97688C11.9823 3.12812 11.891 3.26604 11.7656 3.39062L3.53125 11.625H0.875ZM10 3.375L10.875 2.5L10 1.625L9.125 2.5L10 3.375Z" fill="white"/>
</svg>
