<svg width="25" height="25" viewBox="0 0 25 25" fill="currentColor" xmlns="http://www.w3.org/2000/svg">
<path d="M6.514 2C5.21 2.129 4.332 2.419 3.676 3.076C2.501 4.253 2.501 6.148 2.501 9.939V13.959C2.501 17.749 2.501 19.645 3.676 20.823C4.851 22.001 6.743 22 10.526 22H12.533C16.316 22 18.208 22 19.383 20.823C20.45 19.753 20.549 18.106 20.558 14.977" stroke="#B1B1B1" stroke-width="1.5" stroke-linecap="round" stroke-linejoin="round"/>
<path d="M10.526 7.00004L11.529 10.5C12.089 11.61 12.792 11.9 14.539 12C15.928 11.966 16.734 11.802 17.422 11.204C17.891 10.796 18.103 10.181 18.206 9.56904L18.55 7.50004M21.058 5.50004V10.5M8.601 4.93304C10.188 3.61604 11.602 2.90904 14.535 2.13104C14.8659 2.04368 15.214 2.04541 15.544 2.13604C18.14 2.85004 19.542 3.48404 21.42 4.89404C21.5 4.95404 21.524 5.06604 21.468 5.14904C20.855 6.05104 19.486 6.78204 16.128 8.08404C15.4286 8.35317 14.6534 8.34889 13.957 8.07204C10.381 6.65204 8.737 5.89204 8.537 5.10304C8.5305 5.07156 8.53306 5.03887 8.54439 5.00878C8.55572 4.97869 8.57535 4.95243 8.601 4.93304Z" stroke="#B1B1B1" stroke-width="1.5" stroke-linecap="round" stroke-linejoin="round"/>
</svg>
